<svg width="97" height="23" viewBox="0 0 97 23" fill="none" xmlns="http://www.w3.org/2000/svg">
<path d="M0.05 11.598C0.05 14.986 1.03 17.6367 2.99 19.55C4.95 21.454 7.39067 22.406 10.312 22.406C11.964 22.406 13.4713 22.0747 14.834 21.412C16.206 20.7493 17.326 19.8113 18.194 18.598L17.088 17.66C16.5 18.5467 15.66 19.284 14.568 19.872C13.476 20.46 12.1647 20.754 10.634 20.754C8.31 20.754 6.41533 19.9327 4.95 18.29C3.48467 16.638 2.74267 14.2627 2.724 11.164C2.70533 8.20533 3.38667 5.97933 4.768 4.486C6.14933 2.98333 8.02533 2.232 10.396 2.232C11.376 2.232 12.3 2.39067 13.168 2.708C14.036 3.016 14.7547 3.464 15.324 4.052L16.724 2.582C15.9213 1.994 14.9553 1.53667 13.826 1.21C12.706 0.883332 11.544 0.719999 10.34 0.719999C7.344 0.719999 4.88 1.75133 2.948 3.814C1.016 5.86733 0.05 8.462 0.05 11.598ZM14.68 3.478L15.59 7.44H16.892V1.182H15.8L14.68 3.478ZM19.3273 11.668C19.3273 14.8787 20.2747 17.4733 22.1693 19.452C24.064 21.4307 26.4767 22.42 29.4073 22.42C32.422 22.42 34.8393 21.3747 36.6593 19.284C38.4793 17.184 39.3893 14.58 39.3893 11.472C39.3893 8.20533 38.47 5.59667 36.6313 3.646C34.7927 1.69533 32.3707 0.719999 29.3653 0.719999C26.36 0.719999 23.9333 1.756 22.0853 3.828C20.2467 5.9 19.3273 8.51333 19.3273 11.668ZM22.0013 11.178C22.0013 8.34067 22.6313 6.15667 23.8913 4.626C25.1607 3.086 26.99 2.316 29.3793 2.316C31.61 2.316 33.388 3.16533 34.7133 4.864C36.048 6.56267 36.7153 8.78867 36.7153 11.542C36.7153 14.6033 36.09 16.932 34.8393 18.528C33.598 20.1147 31.778 20.908 29.3793 20.908C27.186 20.908 25.408 20.0213 24.0453 18.248C22.6827 16.4653 22.0013 14.1087 22.0013 11.178ZM41.5038 22H49.6238V20.852L46.7678 20.348L46.7398 11.458L46.7958 2.624L47.1878 2.358H49.5958C50.7998 2.358 51.6724 2.666 52.2138 3.282C52.7551 3.898 53.0258 4.78933 53.0258 5.956C53.0258 7.272 52.7131 8.31733 52.0878 9.092C51.4718 9.86667 50.4731 10.254 49.0918 10.254H47.1038L45.5778 10.24V11.332C46.0818 11.3693 46.8098 11.4113 47.7618 11.458C48.7231 11.4953 49.5118 11.514 50.1278 11.514C51.6584 11.514 52.9791 10.9913 54.0898 9.946C55.2098 8.89133 55.7698 7.51933 55.7698 5.83C55.7698 4.29 55.3078 3.1 54.3838 2.26C53.4691 1.42 52.0504 0.999998 50.1278 0.999998H41.5038V2.302L44.2478 2.778L44.2758 11.444L44.2478 20.348L41.5038 20.852V22ZM48.9378 11.332L55.1118 21.104L56.0358 22H59.5638V20.852C59.0504 20.8427 58.4718 20.6373 57.8278 20.236C57.1931 19.8253 56.4604 18.99 55.6298 17.73L50.9678 10.268L48.9378 11.332ZM58.7909 22H65.7209V20.852L63.1029 20.432L64.8949 14.804L68.7309 4.192L72.7769 14.86L74.6109 20.418L72.2309 20.852V22H79.7069V20.852L77.3409 20.362L74.8209 13.74L70.0889 0.888H68.3809L63.5929 14.412L61.3389 20.362L58.7909 20.852V22ZM63.9709 15.448H74.1209L73.7569 14.048L69.2069 14.202L64.4609 14.062L63.9709 15.448ZM80.3866 22H95.5486L96.2486 16.26H94.8626L93.3646 20.754H86.3786L85.6506 20.39L85.6226 11.444L85.6506 2.778L88.8566 2.302V0.999998H80.3866V2.302L83.1306 2.778L83.1586 11.444L83.1306 20.404L80.3866 20.852V22Z" fill="black"/>
</svg>
